<svg width="220" height="50" viewBox="0 0 220 50" fill="none" xmlns="http://www.w3.org/2000/svg">
<path d="M61.8003 31.7111C65.0549 31.7111 66.8562 29.6852 66.8562 27.4343C66.8562 22.4004 59.5282 23.9965 59.5282 21.1317C59.5282 19.9653 60.3674 19.4128 61.4933 19.4537C62.7214 19.4742 63.4788 20.2108 63.5402 21.1521H66.6925C66.5083 18.5738 64.5023 17.08 61.5751 17.08C58.6275 17.08 56.5397 18.6352 56.5397 21.2135C56.5192 26.3907 63.8882 24.5285 63.8882 27.6185C63.8882 28.6416 63.0899 29.3578 61.7389 29.3578C60.4084 29.3578 59.651 28.6007 59.5691 27.4547H56.4987C56.5397 30.1559 58.8322 31.7111 61.8003 31.7111ZM72.1987 36.9701V29.9512C72.8947 30.8721 74.1638 31.752 75.9446 31.752C78.8513 31.752 81.1234 29.3987 81.1234 25.8586C81.1234 22.3185 78.8513 20.0471 75.9446 20.0471C74.1843 20.0471 72.8742 20.9066 72.1987 21.8683V20.2313H69.333V36.9701H72.1987ZM75.1873 29.235C73.6521 29.235 72.1987 28.0482 72.1987 25.8996C72.1987 23.7509 73.6521 22.5641 75.1873 22.5641C76.7429 22.5641 78.1963 23.71 78.1963 25.8586C78.1963 28.0073 76.7429 29.235 75.1873 29.235ZM86.077 31.5678V25.92C86.077 23.7305 87.1005 23.0757 88.7994 23.0757H89.5568V20.0676C87.9806 20.0676 86.7934 20.8247 86.077 21.9911V20.2313H83.2113V31.5678H86.077ZM96.5164 31.752C99.812 31.752 102.432 29.4601 102.432 25.8996C102.432 22.3185 99.8734 20.0471 96.5983 20.0471C93.3232 20.0471 90.7645 22.3185 90.7645 25.8996C90.7645 29.4601 93.2413 31.752 96.5164 31.752ZM96.5164 29.2555C94.9812 29.2555 93.6711 28.1505 93.6711 25.8996C93.6711 23.6282 95.0426 22.5436 96.5573 22.5436C98.0721 22.5436 99.4844 23.6282 99.4844 25.8996C99.4844 28.1505 98.0311 29.2555 96.5164 29.2555ZM109.412 31.752C112.237 31.752 114.141 30.1559 114.755 27.7412H111.664C111.316 28.7644 110.579 29.2964 109.392 29.2964C107.795 29.2964 106.731 28.1096 106.731 25.8996C106.731 23.6895 107.795 22.4822 109.392 22.4822C110.579 22.4822 111.336 23.0961 111.664 24.0579H114.755C114.141 21.5205 112.237 20.0471 109.412 20.0471C106.137 20.0471 103.803 22.339 103.803 25.8996C103.803 29.4601 106.137 31.752 109.412 31.752ZM119.729 31.5678V26.7385L123.577 31.5678H127.302L122.267 25.92L127.261 20.2313H123.536L119.729 25.0401V16.4252H116.863V31.5678H119.729ZM133.771 31.752C136.575 31.752 138.458 30.0945 139.072 28.0073H135.981C135.613 28.7644 134.937 29.3783 133.709 29.3783C132.276 29.3783 131.13 28.437 130.987 26.759H139.277C139.338 26.3907 139.359 26.0223 139.359 25.654C139.359 22.2776 137.046 20.0471 133.771 20.0471C130.414 20.0471 128.08 22.3185 128.08 25.8996C128.08 29.4601 130.475 31.752 133.771 31.752ZM136.391 24.8355H131.007C131.232 23.2803 132.317 22.4004 133.689 22.4004C135.163 22.4004 136.35 23.3417 136.391 24.8355ZM147.321 31.5678V29.1532H145.991C145.09 29.1532 144.783 28.8258 144.783 28.0686V22.5845H147.321V20.2313H144.783V17.4279H141.897V20.2313H140.546V22.5845H141.897V28.0482C141.897 30.647 143.35 31.5678 145.52 31.5678H147.321ZM155.919 31.5678V25.5926H158.559L162.1 31.5678H163.82L160.135 25.4903C162.551 25.0401 163.656 23.3826 163.656 21.4182C163.656 19.0649 162.1 17.2642 158.784 17.2642H154.486V31.5678H155.919ZM158.805 24.4262H155.919V18.4715H158.784C161.2 18.4715 162.182 19.6174 162.182 21.4182C162.182 23.1575 161.138 24.4262 158.805 24.4262ZM171.393 31.7315C174.546 31.7315 177.023 29.5215 177.023 25.9814C177.023 22.4208 174.587 20.2313 171.434 20.2313C168.303 20.2313 165.846 22.4208 165.846 25.9814C165.846 29.5215 168.241 31.7315 171.393 31.7315ZM171.393 30.4833C169.265 30.4833 167.3 29.0509 167.3 25.9814C167.3 22.912 169.285 21.4795 171.414 21.4795C173.543 21.4795 175.549 22.912 175.549 25.9814C175.549 29.0509 173.502 30.4833 171.393 30.4833ZM184.412 31.7315C187.216 31.7315 189.038 30.1559 189.55 27.9254H188.015C187.626 29.5624 186.295 30.5242 184.412 30.5242C182.222 30.5242 180.441 29.0099 180.441 25.9814C180.441 22.9529 182.222 21.4591 184.412 21.4591C186.295 21.4591 187.646 22.4413 188.015 24.0374H189.55C189.038 21.7251 187.216 20.2313 184.412 20.2313C181.26 20.2313 178.988 22.4413 178.988 25.9814C178.988 29.5215 181.26 31.7315 184.412 31.7315ZM193.623 31.5678V26.5544L198.229 31.5678H200.173L194.831 25.9609L200.132 20.395H198.126L193.623 25.388V16.4252H192.19V31.5678H193.623ZM206.846 31.7315C209.651 31.7315 211.452 30.1354 211.964 28.0277H210.449C210.04 29.5215 208.75 30.5242 206.846 30.5242C204.759 30.5242 202.937 29.1532 202.814 26.5339H212.087C212.128 26.1451 212.128 25.8586 212.128 25.4084C212.128 22.5641 210.122 20.2313 206.846 20.2313C203.633 20.2313 201.361 22.4208 201.361 25.9814C201.361 29.5215 203.674 31.7315 206.846 31.7315ZM210.674 25.3675H202.814C202.978 22.7687 204.759 21.4591 206.785 21.4591C208.852 21.4591 210.736 22.7687 210.674 25.3675ZM219.681 31.5678V30.34H218.371C217.081 30.34 216.61 29.9103 216.61 28.5393V21.6023H219.681V20.395H216.61V17.5916H215.157V20.395H213.601V21.6023H215.157V28.5393C215.157 30.7698 216.201 31.5678 218.146 31.5678H219.681Z" fill="#30343B"/>
<path fill-rule="evenodd" clip-rule="evenodd" d="M22.4189 20.0614C20.8457 20.0614 19.5652 18.7813 19.5652 17.2086C19.5652 15.6359 20.8457 14.3557 22.4189 14.3557C23.9929 14.3557 25.2726 15.6359 25.2726 17.2086C25.2726 18.7813 23.9929 20.0614 22.4189 20.0614ZM22.4189 13.2994C20.2629 13.2994 18.5085 15.0532 18.5085 17.2086C18.5085 19.3639 20.2629 21.1177 22.4189 21.1177C24.5749 21.1177 26.3293 19.3639 26.3293 17.2086C26.3293 15.0532 24.5749 13.2994 22.4189 13.2994Z" fill="#30343B"/>
<path fill-rule="evenodd" clip-rule="evenodd" d="M22.4189 15.5538C22.1271 15.5538 21.8906 15.7902 21.8906 16.082C21.8906 16.3737 22.1271 16.6101 22.4189 16.6101C22.7493 16.6101 23.0177 16.8792 23.0177 17.2087C23.0177 17.5004 23.255 17.7377 23.546 17.7377C23.8378 17.7377 24.0751 17.5004 24.0751 17.2087C24.0751 16.2966 23.3321 15.5538 22.4189 15.5538Z" fill="#30343B"/>
<path fill-rule="evenodd" clip-rule="evenodd" d="M30.9097 39.3951L26.9456 34.5529C27.2006 32.5476 27.4371 30.5322 27.6475 28.5999L30.2874 32.7261C30.6942 33.3666 30.9097 34.1052 30.9097 34.8622V39.3951ZM24.6219 36.4031H22.9481V27.3516C22.9481 27.0598 22.7116 26.8234 22.4189 26.8234C22.1279 26.8234 21.8906 27.0598 21.8906 27.3516V36.4031H20.2176C19.6365 36.4031 19.1417 35.9671 19.0671 35.3904C18.6981 32.5627 18.3627 29.683 18.0859 27.0238C18.0859 27.0045 18.0834 26.9844 18.08 26.9651C17.6096 22.4297 17.3111 18.5399 17.3111 16.6461C17.3111 14.5997 17.7605 12.7017 18.6478 10.9765H22.9833C23.2751 10.9765 23.5116 10.74 23.5116 10.4475C23.5116 10.1557 23.2751 9.91931 22.9833 9.91931H19.2608C19.4839 9.57476 19.7262 9.23775 19.987 8.90913C20.9656 7.67845 21.9552 6.90467 22.4189 6.57521C22.9959 6.98515 24.3846 8.08672 25.5687 9.91931H25.2374C24.9456 9.91931 24.7091 10.1557 24.7091 10.4475C24.7091 10.74 24.9456 10.9765 25.2374 10.9765H26.1792C26.9532 12.4804 27.5276 14.3658 27.5276 16.6461C27.5276 18.5399 27.2291 22.4297 26.7586 26.9651C26.7553 26.9844 26.7536 27.0037 26.7528 27.0238C26.476 29.683 26.1406 32.5627 25.7725 35.3904C25.697 35.9671 25.2022 36.4031 24.6219 36.4031ZM13.929 34.863C13.929 34.1052 14.1445 33.3666 14.5513 32.727L17.192 28.5999C17.4016 30.5339 17.6389 32.5476 17.893 34.5529L13.929 39.3951V34.863ZM31.178 32.1577L27.8253 26.9182C28.2899 22.4096 28.5843 18.5449 28.5843 16.6453C28.5843 12.7084 26.9884 9.8883 25.6509 8.21499C24.1984 6.40084 22.7518 5.52226 22.6915 5.48622C22.5237 5.38562 22.3149 5.38562 22.1472 5.48622C22.0868 5.52226 20.6403 6.40084 19.1887 8.21499C17.8503 9.8883 16.2544 12.7084 16.2544 16.6453C16.2544 18.5449 16.5488 22.4096 17.0134 26.9182L13.6598 32.1586C13.1449 32.9684 12.8724 33.9032 12.8724 34.863V40.8764C12.8724 41.0994 13.0124 41.2981 13.2238 41.3735C13.2816 41.3936 13.3412 41.4045 13.4007 41.4045C13.5567 41.4045 13.7076 41.3358 13.8099 41.2109L18.1169 35.9495C18.4155 36.8348 19.2541 37.461 20.2176 37.461H21.8906V40.8772C21.8906 41.169 22.1279 41.4054 22.4189 41.4054C22.7116 41.4054 22.9481 41.169 22.9481 40.8772V37.461H24.6219C25.5846 37.461 26.4232 36.8348 26.7217 35.9495L31.0288 41.2109C31.1319 41.3358 31.2828 41.4045 31.438 41.4045C31.4975 41.4045 31.5571 41.3936 31.6158 41.3735C31.8254 41.2981 31.9663 41.0994 31.9663 40.8764V34.863C31.9663 33.9032 31.6938 32.9684 31.178 32.1577Z" fill="#30343B"/>
<path fill-rule="evenodd" clip-rule="evenodd" d="M22.4189 50C21.5334 50 20.6478 49.7728 19.8579 49.3193L2.57448 39.3775C0.986184 38.4646 0 36.7594 0 34.9268V15.0726C0 13.2408 0.986184 11.5357 2.57448 10.6219L19.8579 0.680935C21.4378 -0.226978 23.4001 -0.226978 24.98 0.680935L42.2634 10.6219C43.8516 11.5357 44.8378 13.2408 44.8378 15.0726V34.9276C44.8378 36.7602 43.8516 38.4654 42.2634 39.3783L24.98 49.3193C24.19 49.7728 23.3053 50 22.4189 50ZM22.4189 1.17304C21.7363 1.17304 21.0528 1.34825 20.444 1.69867L3.16065 11.6396C1.93631 12.3446 1.17571 13.66 1.17571 15.0726V34.9276C1.17571 36.3411 1.93631 37.6556 3.16065 38.3606L20.4449 48.3015C21.6625 49.0024 23.177 49.0015 24.3955 48.3015L41.6789 38.3606C42.9032 37.6556 43.6638 36.3411 43.6638 34.9276V15.0726C43.6638 13.66 42.9032 12.3446 41.6789 11.6396L24.3946 1.69867C23.785 1.34825 23.1015 1.17304 22.4189 1.17304Z" fill="#30343B"/>
</svg>
